<svg xmlns="http://www.w3.org/2000/svg" xmlns:xlink="http://www.w3.org/1999/xlink" width="120" zoomAndPan="magnify" viewBox="0 0 90 89.999999" height="120" preserveAspectRatio="xMidYMid meet" version="1.0"><defs><clipPath id="4dfebba182"><path d="M 16.523438 6.515625 L 73.523438 6.515625 L 73.523438 83.765625 L 16.523438 83.765625 Z M 16.523438 6.515625 " clip-rule="nonzero"/></clipPath><clipPath id="2281ff4ca4"><path d="M 16.523438 6.515625 L 72 6.515625 L 72 83 L 16.523438 83 Z M 16.523438 6.515625 " clip-rule="nonzero"/></clipPath><clipPath id="f55e966fb1"><path d="M 19 6.515625 L 73.523438 6.515625 L 73.523438 83.765625 L 19 83.765625 Z M 19 6.515625 " clip-rule="nonzero"/></clipPath></defs><g clip-path="url(#4dfebba182)"><path fill="#7f7f7f" d="M 73.488281 19.953125 L 73.488281 31.707031 L 71.8125 31.707031 L 71.8125 33.386719 L 70.136719 33.386719 L 70.136719 66.972656 L 68.464844 66.972656 L 68.464844 68.652344 L 66.789062 68.652344 L 66.789062 73.691406 L 65.113281 73.691406 L 65.113281 75.371094 L 61.765625 75.371094 L 61.765625 77.050781 L 58.417969 77.050781 L 58.417969 78.730469 L 55.070312 78.730469 L 55.070312 80.410156 L 51.71875 80.410156 L 51.71875 82.085938 L 48.371094 82.085938 L 48.371094 83.765625 L 41.675781 83.765625 L 41.675781 82.085938 L 38.324219 82.085938 L 38.324219 80.410156 L 34.976562 80.410156 L 34.976562 78.730469 L 31.628906 78.730469 L 31.628906 77.050781 L 28.277344 77.050781 L 28.277344 75.371094 L 24.929688 75.371094 L 24.929688 73.691406 L 23.257812 73.691406 L 23.257812 68.652344 L 21.582031 68.652344 L 21.582031 66.972656 L 19.90625 66.972656 L 19.90625 33.386719 L 18.234375 33.386719 L 18.234375 31.707031 L 16.558594 31.707031 L 16.558594 19.953125 L 18.234375 19.953125 L 18.234375 18.273438 L 21.582031 18.273438 L 21.582031 16.59375 L 24.929688 16.59375 L 24.929688 14.914062 L 28.277344 14.914062 L 28.277344 13.234375 L 31.628906 13.234375 L 31.628906 11.554688 L 33.300781 11.554688 L 33.300781 8.195312 L 34.976562 8.195312 L 34.976562 6.515625 L 38.324219 6.515625 L 38.324219 8.195312 L 41.675781 8.195312 L 41.675781 6.515625 L 48.371094 6.515625 L 48.371094 8.195312 L 51.71875 8.195312 L 51.71875 9.875 L 55.070312 9.875 L 55.070312 11.554688 L 58.417969 11.554688 L 58.417969 13.234375 L 61.765625 13.234375 L 61.765625 14.914062 L 65.113281 14.914062 L 65.113281 16.59375 L 68.464844 16.59375 L 68.464844 18.273438 L 71.8125 18.273438 L 71.8125 19.953125 Z M 73.488281 19.953125 " fill-opacity="1" fill-rule="nonzero"/></g><path fill="#c0c0c0" d="M 65.113281 35.066406 L 65.113281 36.746094 L 61.765625 36.746094 L 61.765625 38.425781 L 58.417969 38.425781 L 58.417969 40.105469 L 55.070312 40.105469 L 55.070312 41.785156 L 51.71875 41.785156 L 51.71875 43.460938 L 48.371094 43.460938 L 48.371094 45.140625 L 46.695312 45.140625 L 46.695312 77.050781 L 48.371094 77.050781 L 48.371094 75.371094 L 51.71875 75.371094 L 51.71875 73.691406 L 55.070312 73.691406 L 55.070312 72.011719 L 58.417969 72.011719 L 58.417969 70.332031 L 61.765625 70.332031 L 61.765625 68.652344 L 66.789062 68.652344 L 66.789062 66.972656 L 68.464844 66.972656 L 68.464844 35.066406 Z M 55.070312 70.332031 L 53.394531 70.332031 L 53.394531 48.5 L 51.71875 48.5 L 51.71875 72.011719 L 50.046875 72.011719 L 50.046875 48.5 L 51.71875 48.5 L 51.71875 46.820312 L 53.394531 46.820312 L 53.394531 48.5 L 55.070312 48.5 Z M 65.113281 65.292969 L 63.441406 65.292969 L 63.441406 43.460938 L 61.765625 43.460938 L 61.765625 66.972656 L 60.089844 66.972656 L 60.089844 43.460938 L 61.765625 43.460938 L 61.765625 41.785156 L 63.441406 41.785156 L 63.441406 43.460938 L 65.113281 43.460938 Z M 45.023438 35.066406 L 45.023438 43.460938 L 41.675781 43.460938 L 41.675781 41.785156 L 38.324219 41.785156 L 38.324219 40.105469 L 34.976562 40.105469 L 34.976562 38.425781 L 31.628906 38.425781 L 31.628906 36.746094 L 28.277344 36.746094 L 28.277344 35.066406 L 24.929688 35.066406 L 24.929688 33.386719 L 21.582031 33.386719 L 21.582031 31.707031 L 18.234375 31.707031 L 18.234375 23.308594 L 21.582031 23.308594 L 21.582031 24.988281 L 24.929688 24.988281 L 24.929688 26.667969 L 28.277344 26.667969 L 28.277344 28.347656 L 31.628906 28.347656 L 31.628906 30.027344 L 34.976562 30.027344 L 34.976562 31.707031 L 38.324219 31.707031 L 38.324219 33.386719 L 41.675781 33.386719 L 41.675781 35.066406 Z M 71.8125 23.308594 L 71.8125 31.707031 L 68.464844 31.707031 L 68.464844 33.386719 L 65.113281 33.386719 L 65.113281 35.066406 L 61.765625 35.066406 L 61.765625 36.746094 L 58.417969 36.746094 L 58.417969 38.425781 L 55.070312 38.425781 L 55.070312 40.105469 L 51.71875 40.105469 L 51.71875 41.785156 L 48.371094 41.785156 L 48.371094 43.460938 L 46.695312 43.460938 L 46.695312 35.066406 L 48.371094 35.066406 L 48.371094 33.386719 L 51.71875 33.386719 L 51.71875 31.707031 L 55.070312 31.707031 L 55.070312 30.027344 L 58.417969 30.027344 L 58.417969 28.347656 L 61.765625 28.347656 L 61.765625 26.667969 L 65.113281 26.667969 L 65.113281 24.988281 L 68.464844 24.988281 L 68.464844 23.308594 Z M 71.8125 19.953125 L 71.8125 21.632812 L 68.464844 21.632812 L 68.464844 23.308594 L 65.113281 23.308594 L 65.113281 24.988281 L 61.765625 24.988281 L 61.765625 26.667969 L 58.417969 26.667969 L 58.417969 28.347656 L 55.070312 28.347656 L 55.070312 30.027344 L 51.71875 30.027344 L 51.71875 31.707031 L 48.371094 31.707031 L 48.371094 33.386719 L 41.675781 33.386719 L 41.675781 31.707031 L 38.324219 31.707031 L 38.324219 30.027344 L 34.976562 30.027344 L 34.976562 28.347656 L 31.628906 28.347656 L 31.628906 26.667969 L 28.277344 26.667969 L 28.277344 24.988281 L 24.929688 24.988281 L 24.929688 23.308594 L 21.582031 23.308594 L 21.582031 21.632812 L 18.234375 21.632812 L 18.234375 19.953125 L 21.582031 19.953125 L 21.582031 18.273438 L 24.929688 18.273438 L 24.929688 16.59375 L 28.277344 16.59375 L 28.277344 14.914062 L 31.628906 14.914062 L 31.628906 13.234375 L 33.300781 13.234375 L 33.300781 16.59375 L 34.976562 16.59375 L 34.976562 18.273438 L 38.324219 18.273438 L 38.324219 16.59375 L 43.347656 16.59375 L 43.347656 18.273438 L 46.695312 18.273438 L 46.695312 23.308594 L 48.371094 23.308594 L 48.371094 24.988281 L 51.71875 24.988281 L 51.71875 23.308594 L 53.394531 23.308594 L 53.394531 14.914062 L 51.71875 14.914062 L 51.71875 13.234375 L 48.371094 13.234375 L 48.371094 11.554688 L 45.023438 11.554688 L 45.023438 9.875 L 41.675781 9.875 L 41.675781 8.195312 L 48.371094 8.195312 L 48.371094 9.875 L 51.71875 9.875 L 51.71875 11.554688 L 55.070312 11.554688 L 55.070312 13.234375 L 58.417969 13.234375 L 58.417969 14.914062 L 61.765625 14.914062 L 61.765625 16.59375 L 65.113281 16.59375 L 65.113281 18.273438 L 68.464844 18.273438 L 68.464844 19.953125 Z M 51.71875 14.914062 L 51.71875 23.308594 L 48.371094 23.308594 L 48.371094 18.273438 L 46.695312 18.273438 L 46.695312 16.59375 L 43.347656 16.59375 L 43.347656 14.914062 L 40 14.914062 L 40 13.234375 L 36.652344 13.234375 L 36.652344 14.914062 L 38.324219 14.914062 L 38.324219 16.59375 L 34.976562 16.59375 L 34.976562 8.195312 L 38.324219 8.195312 L 38.324219 9.875 L 41.675781 9.875 L 41.675781 11.554688 L 45.023438 11.554688 L 45.023438 13.234375 L 48.371094 13.234375 L 48.371094 14.914062 Z M 45.023438 78.730469 L 45.023438 82.085938 L 41.675781 82.085938 L 41.675781 80.410156 L 38.324219 80.410156 L 38.324219 78.730469 L 34.976562 78.730469 L 34.976562 77.050781 L 31.628906 77.050781 L 31.628906 75.371094 L 28.277344 75.371094 L 28.277344 73.691406 L 24.929688 73.691406 L 24.929688 70.332031 L 28.277344 70.332031 L 28.277344 72.011719 L 31.628906 72.011719 L 31.628906 73.691406 L 34.976562 73.691406 L 34.976562 75.371094 L 38.324219 75.371094 L 38.324219 77.050781 L 41.675781 77.050781 L 41.675781 78.730469 Z M 65.113281 70.332031 L 65.113281 73.691406 L 61.765625 73.691406 L 61.765625 75.371094 L 58.417969 75.371094 L 58.417969 77.050781 L 55.070312 77.050781 L 55.070312 78.730469 L 51.71875 78.730469 L 51.71875 80.410156 L 48.371094 80.410156 L 48.371094 82.085938 L 46.695312 82.085938 L 46.695312 78.730469 L 48.371094 78.730469 L 48.371094 77.050781 L 51.71875 77.050781 L 51.71875 75.371094 L 55.070312 75.371094 L 55.070312 73.691406 L 58.417969 73.691406 L 58.417969 72.011719 L 61.765625 72.011719 L 61.765625 70.332031 Z M 41.675781 45.140625 L 41.675781 43.460938 L 38.324219 43.460938 L 38.324219 41.785156 L 34.976562 41.785156 L 34.976562 40.105469 L 31.628906 40.105469 L 31.628906 38.425781 L 28.277344 38.425781 L 28.277344 36.746094 L 24.929688 36.746094 L 24.929688 35.066406 L 21.582031 35.066406 L 21.582031 66.972656 L 23.257812 66.972656 L 23.257812 68.652344 L 28.277344 68.652344 L 28.277344 70.332031 L 31.628906 70.332031 L 31.628906 72.011719 L 34.976562 72.011719 L 34.976562 73.691406 L 38.324219 73.691406 L 38.324219 75.371094 L 41.675781 75.371094 L 41.675781 77.050781 L 45.023438 77.050781 L 45.023438 45.140625 Z M 29.953125 66.972656 L 28.277344 66.972656 L 28.277344 43.460938 L 26.605469 43.460938 L 26.605469 65.292969 L 24.929688 65.292969 L 24.929688 43.460938 L 26.605469 43.460938 L 26.605469 41.785156 L 28.277344 41.785156 L 28.277344 43.460938 L 29.953125 43.460938 Z M 40 72.011719 L 38.324219 72.011719 L 38.324219 48.5 L 36.652344 48.5 L 36.652344 70.332031 L 34.976562 70.332031 L 34.976562 48.5 L 36.652344 48.5 L 36.652344 46.820312 L 38.324219 46.820312 L 38.324219 48.5 L 40 48.5 Z M 40 72.011719 " fill-opacity="1" fill-rule="nonzero"/><g clip-path="url(#2281ff4ca4)"><path fill="#7f7f7f" d="M 21.582031 19.953125 L 18.234375 19.953125 L 18.234375 18.273438 L 21.582031 18.273438 Z M 24.929688 16.59375 L 21.582031 16.59375 L 21.582031 18.273438 L 24.929688 18.273438 Z M 28.277344 14.914062 L 24.929688 14.914062 L 24.929688 16.59375 L 28.277344 16.59375 Z M 31.628906 13.234375 L 28.277344 13.234375 L 28.277344 14.914062 L 31.628906 14.914062 Z M 33.300781 11.554688 L 31.628906 11.554688 L 31.628906 13.234375 L 33.300781 13.234375 Z M 48.371094 6.515625 L 41.675781 6.515625 L 41.675781 8.195312 L 48.371094 8.195312 Z M 40 13.234375 L 36.652344 13.234375 L 36.652344 14.914062 L 40 14.914062 Z M 16.558594 19.953125 L 16.558594 31.707031 L 18.234375 31.707031 L 18.234375 19.953125 Z M 21.582031 31.707031 L 18.234375 31.707031 L 18.234375 33.386719 L 19.90625 33.386719 L 19.90625 66.972656 L 21.582031 66.972656 Z M 21.582031 66.972656 L 21.582031 68.652344 L 23.257812 68.652344 L 23.257812 66.972656 Z M 23.257812 73.691406 L 24.929688 73.691406 L 24.929688 68.652344 L 23.257812 68.652344 Z M 46.695312 77.050781 L 48.371094 77.050781 L 48.371094 75.371094 L 46.695312 75.371094 L 46.695312 73.691406 L 48.371094 73.691406 L 48.371094 72.011719 L 46.695312 72.011719 L 46.695312 70.332031 L 48.371094 70.332031 L 48.371094 68.652344 L 46.695312 68.652344 L 46.695312 66.972656 L 48.371094 66.972656 L 48.371094 65.292969 L 46.695312 65.292969 L 46.695312 63.613281 L 48.371094 63.613281 L 48.371094 61.933594 L 46.695312 61.933594 L 46.695312 60.257812 L 48.371094 60.257812 L 48.371094 58.578125 L 46.695312 58.578125 L 46.695312 56.898438 L 48.371094 56.898438 L 48.371094 55.21875 L 46.695312 55.21875 L 46.695312 53.539062 L 48.371094 53.539062 L 48.371094 51.859375 L 46.695312 51.859375 L 46.695312 50.179688 L 48.371094 50.179688 L 48.371094 48.5 L 46.695312 48.5 L 46.695312 46.820312 L 48.371094 46.820312 L 48.371094 45.140625 L 45.023438 45.140625 L 45.023438 82.085938 L 46.695312 82.085938 L 46.695312 80.410156 L 48.371094 80.410156 L 48.371094 78.730469 L 46.695312 78.730469 Z M 50.046875 80.410156 L 51.71875 80.410156 L 51.71875 78.730469 L 50.046875 78.730469 Z M 48.371094 77.050781 L 48.371094 78.730469 L 50.046875 78.730469 L 50.046875 77.050781 Z M 48.371094 75.371094 L 50.046875 75.371094 L 50.046875 73.691406 L 48.371094 73.691406 Z M 50.046875 73.691406 L 51.71875 73.691406 L 51.71875 72.011719 L 50.046875 72.011719 Z M 51.71875 70.332031 L 51.71875 72.011719 L 53.394531 72.011719 L 53.394531 70.332031 Z M 55.070312 68.652344 L 56.742188 68.652344 L 56.742188 66.972656 L 55.070312 66.972656 Z M 53.394531 73.691406 L 55.070312 73.691406 L 55.070312 72.011719 L 53.394531 72.011719 Z M 55.070312 72.011719 L 56.742188 72.011719 L 56.742188 70.332031 L 55.070312 70.332031 Z M 56.742188 70.332031 L 58.417969 70.332031 L 58.417969 68.652344 L 56.742188 68.652344 Z M 60.089844 68.652344 L 60.089844 66.972656 L 58.417969 66.972656 L 58.417969 68.652344 Z M 60.089844 70.332031 L 61.765625 70.332031 L 61.765625 68.652344 L 60.089844 68.652344 Z M 61.765625 68.652344 L 63.441406 68.652344 L 63.441406 66.972656 L 61.765625 66.972656 Z M 63.441406 65.292969 L 63.441406 66.972656 L 65.113281 66.972656 L 65.113281 65.292969 Z M 65.113281 68.652344 L 66.789062 68.652344 L 66.789062 66.972656 L 65.113281 66.972656 Z M 68.464844 66.972656 L 68.464844 65.292969 L 66.789062 65.292969 L 66.789062 66.972656 Z M 65.113281 65.292969 L 66.789062 65.292969 L 66.789062 63.613281 L 65.113281 63.613281 Z M 68.464844 63.613281 L 68.464844 61.933594 L 66.789062 61.933594 L 66.789062 63.613281 Z M 61.765625 63.613281 L 61.765625 65.292969 L 63.441406 65.292969 L 63.441406 63.613281 Z M 65.113281 61.933594 L 66.789062 61.933594 L 66.789062 60.257812 L 65.113281 60.257812 Z M 68.464844 60.257812 L 68.464844 58.578125 L 66.789062 58.578125 L 66.789062 60.257812 Z M 56.742188 66.972656 L 58.417969 66.972656 L 58.417969 65.292969 L 56.742188 65.292969 Z M 60.089844 65.292969 L 60.089844 63.613281 L 58.417969 63.613281 L 58.417969 65.292969 Z M 61.765625 61.933594 L 63.441406 61.933594 L 63.441406 60.257812 L 61.765625 60.257812 Z M 65.113281 58.578125 L 66.789062 58.578125 L 66.789062 56.898438 L 65.113281 56.898438 Z M 68.464844 56.898438 L 68.464844 55.21875 L 66.789062 55.21875 L 66.789062 56.898438 Z M 50.046875 70.332031 L 48.371094 70.332031 L 48.371094 72.011719 L 50.046875 72.011719 Z M 51.71875 68.652344 L 53.394531 68.652344 L 53.394531 66.972656 L 51.71875 66.972656 Z M 55.070312 65.292969 L 56.742188 65.292969 L 56.742188 63.613281 L 55.070312 63.613281 Z M 56.742188 63.613281 L 58.417969 63.613281 L 58.417969 61.933594 L 56.742188 61.933594 Z M 60.089844 61.933594 L 60.089844 60.257812 L 58.417969 60.257812 L 58.417969 61.933594 Z M 61.765625 58.578125 L 63.441406 58.578125 L 63.441406 56.898438 L 61.765625 56.898438 Z M 65.113281 55.21875 L 66.789062 55.21875 L 66.789062 53.539062 L 65.113281 53.539062 Z M 68.464844 53.539062 L 68.464844 51.859375 L 66.789062 51.859375 L 66.789062 53.539062 Z M 50.046875 66.972656 L 48.371094 66.972656 L 48.371094 68.652344 L 50.046875 68.652344 Z M 51.71875 65.292969 L 53.394531 65.292969 L 53.394531 63.613281 L 51.71875 63.613281 Z M 55.070312 61.933594 L 56.742188 61.933594 L 56.742188 60.257812 L 55.070312 60.257812 Z M 56.742188 60.257812 L 58.417969 60.257812 L 58.417969 58.578125 L 56.742188 58.578125 Z M 60.089844 58.578125 L 60.089844 56.898438 L 58.417969 56.898438 L 58.417969 58.578125 Z M 61.765625 55.21875 L 63.441406 55.21875 L 63.441406 53.539062 L 61.765625 53.539062 Z M 65.113281 51.859375 L 66.789062 51.859375 L 66.789062 50.179688 L 65.113281 50.179688 Z M 68.464844 50.179688 L 68.464844 48.5 L 66.789062 48.5 L 66.789062 50.179688 Z M 50.046875 63.613281 L 48.371094 63.613281 L 48.371094 65.292969 L 50.046875 65.292969 Z M 51.71875 61.933594 L 53.394531 61.933594 L 53.394531 60.257812 L 51.71875 60.257812 Z M 55.070312 58.578125 L 56.742188 58.578125 L 56.742188 56.898438 L 55.070312 56.898438 Z M 56.742188 56.898438 L 58.417969 56.898438 L 58.417969 55.21875 L 56.742188 55.21875 Z M 60.089844 55.21875 L 60.089844 53.539062 L 58.417969 53.539062 L 58.417969 55.21875 Z M 61.765625 51.859375 L 63.441406 51.859375 L 63.441406 50.179688 L 61.765625 50.179688 Z M 65.113281 48.5 L 66.789062 48.5 L 66.789062 46.820312 L 65.113281 46.820312 Z M 68.464844 46.820312 L 68.464844 45.140625 L 66.789062 45.140625 L 66.789062 46.820312 Z M 50.046875 60.257812 L 48.371094 60.257812 L 48.371094 61.933594 L 50.046875 61.933594 Z M 51.71875 58.578125 L 53.394531 58.578125 L 53.394531 56.898438 L 51.71875 56.898438 Z M 55.070312 55.21875 L 56.742188 55.21875 L 56.742188 53.539062 L 55.070312 53.539062 Z M 56.742188 53.539062 L 58.417969 53.539062 L 58.417969 51.859375 L 56.742188 51.859375 Z M 60.089844 51.859375 L 60.089844 50.179688 L 58.417969 50.179688 L 58.417969 51.859375 Z M 61.765625 48.5 L 63.441406 48.5 L 63.441406 46.820312 L 61.765625 46.820312 Z M 65.113281 45.140625 L 66.789062 45.140625 L 66.789062 43.460938 L 65.113281 43.460938 Z M 68.464844 43.460938 L 68.464844 41.785156 L 66.789062 41.785156 L 66.789062 43.460938 Z M 50.046875 56.898438 L 48.371094 56.898438 L 48.371094 58.578125 L 50.046875 58.578125 Z M 51.71875 55.21875 L 53.394531 55.21875 L 53.394531 53.539062 L 51.71875 53.539062 Z M 55.070312 51.859375 L 56.742188 51.859375 L 56.742188 50.179688 L 55.070312 50.179688 Z M 56.742188 50.179688 L 58.417969 50.179688 L 58.417969 48.5 L 56.742188 48.5 Z M 60.089844 48.5 L 60.089844 46.820312 L 58.417969 46.820312 L 58.417969 48.5 Z M 61.765625 45.140625 L 63.441406 45.140625 L 63.441406 43.460938 L 61.765625 43.460938 Z M 65.113281 41.785156 L 66.789062 41.785156 L 66.789062 40.105469 L 65.113281 40.105469 Z M 63.441406 43.460938 L 65.113281 43.460938 L 65.113281 41.785156 L 63.441406 41.785156 Z M 68.464844 40.105469 L 68.464844 38.425781 L 66.789062 38.425781 L 66.789062 40.105469 Z M 50.046875 53.539062 L 48.371094 53.539062 L 48.371094 55.21875 L 50.046875 55.21875 Z M 50.046875 50.179688 L 48.371094 50.179688 L 48.371094 51.859375 L 50.046875 51.859375 Z M 50.046875 46.820312 L 48.371094 46.820312 L 48.371094 48.5 L 50.046875 48.5 Z M 51.71875 45.140625 L 50.046875 45.140625 L 50.046875 46.820312 L 51.71875 46.820312 Z M 53.394531 43.460938 L 51.71875 43.460938 L 51.71875 45.140625 L 53.394531 45.140625 Z M 55.070312 41.785156 L 53.394531 41.785156 L 53.394531 43.460938 L 55.070312 43.460938 Z M 56.742188 41.785156 L 56.742188 40.105469 L 55.070312 40.105469 L 55.070312 41.785156 Z M 46.695312 41.785156 L 46.695312 40.105469 L 48.371094 40.105469 L 48.371094 38.425781 L 46.695312 38.425781 L 46.695312 36.746094 L 48.371094 36.746094 L 48.371094 35.066406 L 45.023438 35.066406 L 45.023438 43.460938 L 48.371094 43.460938 L 48.371094 41.785156 Z M 50.046875 33.386719 L 48.371094 33.386719 L 48.371094 35.066406 L 50.046875 35.066406 Z M 50.046875 36.746094 L 48.371094 36.746094 L 48.371094 38.425781 L 50.046875 38.425781 Z M 51.71875 36.746094 L 51.71875 35.066406 L 50.046875 35.066406 L 50.046875 36.746094 Z M 53.394531 33.386719 L 51.71875 33.386719 L 51.71875 35.066406 L 53.394531 35.066406 Z M 55.070312 31.707031 L 53.394531 31.707031 L 53.394531 33.386719 L 55.070312 33.386719 Z M 56.742188 30.027344 L 55.070312 30.027344 L 55.070312 31.707031 L 56.742188 31.707031 Z M 48.371094 41.785156 L 50.046875 41.785156 L 50.046875 40.105469 L 48.371094 40.105469 Z M 50.046875 40.105469 L 51.71875 40.105469 L 51.71875 38.425781 L 50.046875 38.425781 Z M 53.394531 40.105469 L 55.070312 40.105469 L 55.070312 38.425781 L 53.394531 38.425781 Z M 55.070312 38.425781 L 56.742188 38.425781 L 56.742188 36.746094 L 55.070312 36.746094 Z M 56.742188 36.746094 L 58.417969 36.746094 L 58.417969 35.066406 L 56.742188 35.066406 Z M 60.089844 36.746094 L 61.765625 36.746094 L 61.765625 35.066406 L 60.089844 35.066406 Z M 61.765625 35.066406 L 63.441406 35.066406 L 63.441406 33.386719 L 61.765625 33.386719 Z M 63.441406 33.386719 L 65.113281 33.386719 L 65.113281 31.707031 L 63.441406 31.707031 Z M 66.789062 33.386719 L 68.464844 33.386719 L 68.464844 31.707031 L 66.789062 31.707031 Z M 68.464844 31.707031 L 70.136719 31.707031 L 70.136719 30.027344 L 68.464844 30.027344 Z M 71.8125 30.027344 L 71.8125 28.347656 L 70.136719 28.347656 L 70.136719 30.027344 Z M 65.113281 30.027344 L 65.113281 31.707031 L 66.789062 31.707031 L 66.789062 30.027344 Z M 66.789062 30.027344 L 68.464844 30.027344 L 68.464844 28.347656 L 66.789062 28.347656 Z M 68.464844 26.667969 L 68.464844 28.347656 L 70.136719 28.347656 L 70.136719 26.667969 Z M 71.8125 26.667969 L 71.8125 24.988281 L 70.136719 24.988281 L 70.136719 26.667969 Z M 58.417969 35.066406 L 60.089844 35.066406 L 60.089844 33.386719 L 58.417969 33.386719 Z M 60.089844 33.386719 L 61.765625 33.386719 L 61.765625 31.707031 L 60.089844 31.707031 Z M 61.765625 31.707031 L 63.441406 31.707031 L 63.441406 30.027344 L 61.765625 30.027344 Z M 65.113281 30.027344 L 65.113281 28.347656 L 63.441406 28.347656 L 63.441406 30.027344 Z M 66.789062 26.667969 L 65.113281 26.667969 L 65.113281 28.347656 L 66.789062 28.347656 Z M 68.464844 24.988281 L 66.789062 24.988281 L 66.789062 26.667969 L 68.464844 26.667969 Z M 70.136719 23.308594 L 68.464844 23.308594 L 68.464844 24.988281 L 70.136719 24.988281 Z M 51.71875 36.746094 L 51.71875 38.425781 L 53.394531 38.425781 L 53.394531 36.746094 Z M 55.070312 35.066406 L 53.394531 35.066406 L 53.394531 36.746094 L 55.070312 36.746094 Z M 56.742188 33.386719 L 55.070312 33.386719 L 55.070312 35.066406 L 56.742188 35.066406 Z M 58.417969 33.386719 L 58.417969 31.707031 L 56.742188 31.707031 L 56.742188 33.386719 Z M 60.089844 30.027344 L 58.417969 30.027344 L 58.417969 31.707031 L 60.089844 31.707031 Z M 61.765625 28.347656 L 60.089844 28.347656 L 60.089844 30.027344 L 61.765625 30.027344 Z M 63.441406 26.667969 L 61.765625 26.667969 L 61.765625 28.347656 L 63.441406 28.347656 Z M 50.046875 43.460938 L 48.371094 43.460938 L 48.371094 45.140625 L 50.046875 45.140625 Z M 51.71875 51.859375 L 53.394531 51.859375 L 53.394531 50.179688 L 51.71875 50.179688 Z M 55.070312 48.5 L 56.742188 48.5 L 56.742188 46.820312 L 55.070312 46.820312 Z M 56.742188 46.820312 L 58.417969 46.820312 L 58.417969 45.140625 L 56.742188 45.140625 Z M 58.417969 45.140625 L 60.089844 45.140625 L 60.089844 43.460938 L 58.417969 43.460938 Z M 56.742188 45.140625 L 56.742188 43.460938 L 55.070312 43.460938 L 55.070312 45.140625 Z M 53.394531 45.140625 L 53.394531 46.820312 L 55.070312 46.820312 L 55.070312 45.140625 Z M 58.417969 43.460938 L 58.417969 41.785156 L 56.742188 41.785156 L 56.742188 43.460938 Z M 60.089844 40.105469 L 58.417969 40.105469 L 58.417969 41.785156 L 60.089844 41.785156 Z M 61.765625 38.425781 L 60.089844 38.425781 L 60.089844 40.105469 L 61.765625 40.105469 Z M 63.441406 38.425781 L 63.441406 36.746094 L 61.765625 36.746094 L 61.765625 38.425781 Z M 63.441406 41.785156 L 63.441406 40.105469 L 61.765625 40.105469 L 61.765625 41.785156 Z M 60.089844 41.785156 L 60.089844 43.460938 L 61.765625 43.460938 L 61.765625 41.785156 Z M 66.789062 36.746094 L 65.113281 36.746094 L 65.113281 38.425781 L 66.789062 38.425781 Z M 65.113281 40.105469 L 65.113281 38.425781 L 63.441406 38.425781 L 63.441406 40.105469 Z M 68.464844 35.066406 L 66.789062 35.066406 L 66.789062 36.746094 L 68.464844 36.746094 Z M 51.71875 78.730469 L 53.394531 78.730469 L 53.394531 77.050781 L 51.71875 77.050781 Z M 53.394531 77.050781 L 55.070312 77.050781 L 55.070312 75.371094 L 53.394531 75.371094 Z M 55.070312 73.691406 L 55.070312 75.371094 L 56.742188 75.371094 L 56.742188 73.691406 Z M 56.742188 77.050781 L 58.417969 77.050781 L 58.417969 75.371094 L 56.742188 75.371094 Z M 58.417969 75.371094 L 60.089844 75.371094 L 60.089844 73.691406 L 58.417969 73.691406 Z M 60.089844 73.691406 L 61.765625 73.691406 L 61.765625 72.011719 L 60.089844 72.011719 Z M 63.441406 72.011719 L 63.441406 70.332031 L 61.765625 70.332031 L 61.765625 72.011719 Z M 65.113281 73.691406 L 65.113281 72.011719 L 63.441406 72.011719 L 63.441406 73.691406 Z M 26.605469 66.972656 L 28.277344 66.972656 L 28.277344 43.460938 L 26.605469 43.460938 Z M 36.652344 72.011719 L 38.324219 72.011719 L 38.324219 48.5 L 36.652344 48.5 Z M 23.257812 35.066406 L 23.257812 36.746094 L 24.929688 36.746094 L 24.929688 35.066406 Z M 41.675781 46.820312 L 43.347656 46.820312 L 43.347656 45.140625 L 41.675781 45.140625 Z M 24.929688 36.746094 L 24.929688 38.425781 L 28.277344 38.425781 L 28.277344 36.746094 Z M 28.277344 38.425781 L 28.277344 40.105469 L 31.628906 40.105469 L 31.628906 38.425781 Z M 31.628906 40.105469 L 31.628906 41.785156 L 34.976562 41.785156 L 34.976562 40.105469 Z M 34.976562 41.785156 L 34.976562 43.460938 L 38.324219 43.460938 L 38.324219 41.785156 Z M 38.324219 43.460938 L 38.324219 45.140625 L 41.675781 45.140625 L 41.675781 43.460938 Z M 48.371094 26.667969 L 51.71875 26.667969 L 51.71875 24.988281 L 48.371094 24.988281 Z M 53.394531 23.308594 L 51.71875 23.308594 L 51.71875 24.988281 L 53.394531 24.988281 Z M 55.070312 14.914062 L 53.394531 14.914062 L 53.394531 23.308594 L 55.070312 23.308594 Z M 55.070312 14.914062 " fill-opacity="1" fill-rule="nonzero"/></g><g clip-path="url(#f55e966fb1)"><path fill="#000000" d="M 38.324219 9.875 L 38.324219 8.195312 L 41.675781 8.195312 L 41.675781 9.875 Z M 71.8125 19.953125 L 71.8125 21.632812 L 68.464844 21.632812 L 68.464844 23.308594 L 71.8125 23.308594 L 71.8125 31.707031 L 73.488281 31.707031 L 73.488281 19.953125 Z M 68.464844 18.273438 L 68.464844 19.953125 L 71.8125 19.953125 L 71.8125 18.273438 Z M 65.113281 16.59375 L 65.113281 18.273438 L 68.464844 18.273438 L 68.464844 16.59375 Z M 61.765625 14.914062 L 61.765625 16.59375 L 65.113281 16.59375 L 65.113281 14.914062 Z M 58.417969 13.234375 L 58.417969 14.914062 L 61.765625 14.914062 L 61.765625 13.234375 Z M 55.070312 11.554688 L 55.070312 13.234375 L 58.417969 13.234375 L 58.417969 11.554688 Z M 51.71875 9.875 L 51.71875 11.554688 L 55.070312 11.554688 L 55.070312 9.875 Z M 48.371094 8.195312 L 48.371094 9.875 L 51.71875 9.875 L 51.71875 8.195312 Z M 21.582031 33.386719 L 21.582031 35.066406 L 24.929688 35.066406 L 24.929688 33.386719 Z M 24.929688 35.066406 L 24.929688 36.746094 L 28.277344 36.746094 L 28.277344 35.066406 Z M 28.277344 36.746094 L 28.277344 38.425781 L 31.628906 38.425781 L 31.628906 36.746094 Z M 31.628906 38.425781 L 31.628906 40.105469 L 34.976562 40.105469 L 34.976562 38.425781 Z M 34.976562 40.105469 L 34.976562 41.785156 L 38.324219 41.785156 L 38.324219 40.105469 Z M 38.324219 41.785156 L 38.324219 43.460938 L 41.675781 43.460938 L 41.675781 41.785156 Z M 41.675781 45.140625 L 48.371094 45.140625 L 48.371094 43.460938 L 41.675781 43.460938 Z M 41.675781 83.765625 L 48.371094 83.765625 L 48.371094 82.085938 L 41.675781 82.085938 Z M 68.464844 33.386719 L 65.113281 33.386719 L 65.113281 35.066406 L 68.464844 35.066406 L 68.464844 66.972656 L 70.136719 66.972656 L 70.136719 33.386719 L 71.8125 33.386719 L 71.8125 31.707031 L 68.464844 31.707031 Z M 61.765625 36.746094 L 65.113281 36.746094 L 65.113281 35.066406 L 61.765625 35.066406 Z M 58.417969 38.425781 L 61.765625 38.425781 L 61.765625 36.746094 L 58.417969 36.746094 Z M 55.070312 40.105469 L 58.417969 40.105469 L 58.417969 38.425781 L 55.070312 38.425781 Z M 51.71875 41.785156 L 55.070312 41.785156 L 55.070312 40.105469 L 51.71875 40.105469 Z M 48.371094 43.460938 L 51.71875 43.460938 L 51.71875 41.785156 L 48.371094 41.785156 Z M 19.90625 21.632812 L 19.90625 23.308594 L 21.582031 23.308594 L 21.582031 21.632812 Z M 21.582031 23.308594 L 21.582031 24.988281 L 24.929688 24.988281 L 24.929688 23.308594 Z M 24.929688 24.988281 L 24.929688 26.667969 L 28.277344 26.667969 L 28.277344 24.988281 Z M 28.277344 26.667969 L 28.277344 28.347656 L 31.628906 28.347656 L 31.628906 26.667969 Z M 31.628906 28.347656 L 31.628906 30.027344 L 34.976562 30.027344 L 34.976562 28.347656 Z M 34.976562 30.027344 L 34.976562 31.707031 L 38.324219 31.707031 L 38.324219 30.027344 Z M 38.324219 31.707031 L 38.324219 33.386719 L 41.675781 33.386719 L 41.675781 31.707031 Z M 41.675781 35.066406 L 48.371094 35.066406 L 48.371094 33.386719 L 41.675781 33.386719 Z M 65.113281 24.988281 L 68.464844 24.988281 L 68.464844 23.308594 L 65.113281 23.308594 Z M 61.765625 26.667969 L 65.113281 26.667969 L 65.113281 24.988281 L 61.765625 24.988281 Z M 58.417969 28.347656 L 61.765625 28.347656 L 61.765625 26.667969 L 58.417969 26.667969 Z M 48.371094 24.988281 L 51.71875 24.988281 L 51.71875 23.308594 L 48.371094 23.308594 Z M 55.070312 30.027344 L 58.417969 30.027344 L 58.417969 28.347656 L 55.070312 28.347656 Z M 51.71875 31.707031 L 55.070312 31.707031 L 55.070312 30.027344 L 51.71875 30.027344 Z M 48.371094 33.386719 L 51.71875 33.386719 L 51.71875 31.707031 L 48.371094 31.707031 Z M 46.695312 18.273438 L 46.695312 23.308594 L 48.371094 23.308594 L 48.371094 18.273438 Z M 53.394531 23.308594 L 53.394531 14.914062 L 51.71875 14.914062 L 51.71875 23.308594 Z M 51.71875 14.914062 L 51.71875 13.234375 L 48.371094 13.234375 L 48.371094 14.914062 Z M 48.371094 13.234375 L 48.371094 11.554688 L 45.023438 11.554688 L 45.023438 13.234375 Z M 45.023438 11.554688 L 45.023438 9.875 L 41.675781 9.875 L 41.675781 11.554688 Z M 38.324219 6.515625 L 34.976562 6.515625 L 34.976562 8.195312 L 38.324219 8.195312 Z M 34.976562 18.273438 L 38.324219 18.273438 L 38.324219 16.59375 L 34.976562 16.59375 Z M 34.976562 8.195312 L 33.300781 8.195312 L 33.300781 16.59375 L 34.976562 16.59375 Z M 43.347656 16.59375 L 43.347656 18.273438 L 46.695312 18.273438 L 46.695312 16.59375 Z M 40 14.914062 L 38.324219 14.914062 L 38.324219 16.59375 L 43.347656 16.59375 L 43.347656 14.914062 Z M 24.929688 73.691406 L 24.929688 75.371094 L 28.277344 75.371094 L 28.277344 73.691406 Z M 28.277344 75.371094 L 28.277344 77.050781 L 31.628906 77.050781 L 31.628906 75.371094 Z M 31.628906 77.050781 L 31.628906 78.730469 L 34.976562 78.730469 L 34.976562 77.050781 Z M 34.976562 78.730469 L 34.976562 80.410156 L 38.324219 80.410156 L 38.324219 78.730469 Z M 38.324219 80.410156 L 38.324219 82.085938 L 41.675781 82.085938 L 41.675781 80.410156 Z M 24.929688 68.652344 L 24.929688 70.332031 L 28.277344 70.332031 L 28.277344 68.652344 Z M 28.277344 70.332031 L 28.277344 72.011719 L 31.628906 72.011719 L 31.628906 70.332031 Z M 31.628906 72.011719 L 31.628906 73.691406 L 34.976562 73.691406 L 34.976562 72.011719 Z M 34.976562 73.691406 L 34.976562 75.371094 L 38.324219 75.371094 L 38.324219 73.691406 Z M 38.324219 75.371094 L 38.324219 77.050781 L 41.675781 77.050781 L 41.675781 75.371094 Z M 41.675781 78.730469 L 48.371094 78.730469 L 48.371094 77.050781 L 41.675781 77.050781 Z M 66.789062 68.652344 L 68.464844 68.652344 L 68.464844 66.972656 L 66.789062 66.972656 Z M 61.765625 75.371094 L 65.113281 75.371094 L 65.113281 73.691406 L 61.765625 73.691406 Z M 58.417969 77.050781 L 61.765625 77.050781 L 61.765625 75.371094 L 58.417969 75.371094 Z M 55.070312 78.730469 L 58.417969 78.730469 L 58.417969 77.050781 L 55.070312 77.050781 Z M 51.71875 80.410156 L 55.070312 80.410156 L 55.070312 78.730469 L 51.71875 78.730469 Z M 48.371094 82.085938 L 51.71875 82.085938 L 51.71875 80.410156 L 48.371094 80.410156 Z M 61.765625 68.652344 L 61.765625 70.332031 L 65.113281 70.332031 L 65.113281 73.691406 L 66.789062 73.691406 L 66.789062 68.652344 Z M 58.417969 72.011719 L 61.765625 72.011719 L 61.765625 70.332031 L 58.417969 70.332031 Z M 55.070312 73.691406 L 58.417969 73.691406 L 58.417969 72.011719 L 55.070312 72.011719 Z M 51.71875 75.371094 L 55.070312 75.371094 L 55.070312 73.691406 L 51.71875 73.691406 Z M 48.371094 77.050781 L 51.71875 77.050781 L 51.71875 75.371094 L 48.371094 75.371094 Z M 24.929688 65.292969 L 26.605469 65.292969 L 26.605469 43.460938 L 24.929688 43.460938 Z M 29.953125 66.972656 L 29.953125 43.460938 L 28.277344 43.460938 L 28.277344 66.972656 Z M 26.605469 41.785156 L 26.605469 43.460938 L 28.277344 43.460938 L 28.277344 41.785156 Z M 34.976562 70.332031 L 36.652344 70.332031 L 36.652344 48.5 L 34.976562 48.5 Z M 40 72.011719 L 40 48.5 L 38.324219 48.5 L 38.324219 72.011719 Z M 36.652344 46.820312 L 36.652344 48.5 L 38.324219 48.5 L 38.324219 46.820312 Z M 65.113281 65.292969 L 65.113281 43.460938 L 63.441406 43.460938 L 63.441406 65.292969 Z M 60.089844 66.972656 L 61.765625 66.972656 L 61.765625 43.460938 L 60.089844 43.460938 Z M 61.765625 41.785156 L 61.765625 43.460938 L 63.441406 43.460938 L 63.441406 41.785156 Z M 55.070312 70.332031 L 55.070312 48.5 L 53.394531 48.5 L 53.394531 70.332031 Z M 50.046875 72.011719 L 51.71875 72.011719 L 51.71875 48.5 L 50.046875 48.5 Z M 51.71875 46.820312 L 51.71875 48.5 L 53.394531 48.5 L 53.394531 46.820312 Z M 51.71875 46.820312 " fill-opacity="1" fill-rule="nonzero"/></g><path fill="#fefefe" d="M 23.257812 35.066406 L 23.257812 66.972656 L 21.582031 66.972656 L 21.582031 35.066406 Z M 23.257812 33.386719 L 23.257812 31.707031 L 21.582031 31.707031 L 21.582031 33.386719 Z M 18.234375 21.632812 L 18.234375 31.707031 L 21.582031 31.707031 L 21.582031 30.027344 L 19.90625 30.027344 L 19.90625 21.632812 L 21.582031 21.632812 L 21.582031 19.953125 L 18.234375 19.953125 Z M 21.582031 19.953125 L 24.929688 19.953125 L 24.929688 18.273438 L 21.582031 18.273438 Z M 24.929688 18.273438 L 28.277344 18.273438 L 28.277344 16.59375 L 24.929688 16.59375 Z M 28.277344 16.59375 L 31.628906 16.59375 L 31.628906 14.914062 L 28.277344 14.914062 Z M 31.628906 14.914062 L 33.300781 14.914062 L 33.300781 13.234375 L 31.628906 13.234375 Z M 41.675781 8.195312 L 41.675781 9.875 L 48.371094 9.875 L 48.371094 8.195312 Z M 34.976562 8.195312 L 34.976562 16.59375 L 36.652344 16.59375 L 36.652344 9.875 L 38.324219 9.875 L 38.324219 8.195312 Z M 24.929688 68.652344 L 24.929688 66.972656 L 23.257812 66.972656 L 23.257812 68.652344 Z M 24.929688 73.691406 L 26.605469 73.691406 L 26.605469 70.332031 L 24.929688 70.332031 Z M 43.347656 43.460938 L 45.023438 43.460938 L 45.023438 35.066406 L 43.347656 35.066406 Z M 43.347656 77.050781 L 45.023438 77.050781 L 45.023438 45.140625 L 43.347656 45.140625 Z M 43.347656 82.085938 L 45.023438 82.085938 L 45.023438 78.730469 L 43.347656 78.730469 Z M 43.347656 82.085938 " fill-opacity="1" fill-rule="nonzero"/></svg>